<?xml version="1.0" encoding="UTF-8"?>
<svg xmlns="http://www.w3.org/2000/svg" version="1.1" width="300" height="300" viewBox="0 0 300 300"><rect x="0" y="0" width="300" height="300" fill="#ffffff"/><g transform="scale(12)"><g transform="translate(0,0)"><path fill-rule="evenodd" d="M8 0L8 1L9 1L9 2L10 2L10 3L11 3L11 1L13 1L13 2L12 2L12 4L11 4L11 5L10 5L10 4L9 4L9 5L10 5L10 8L9 8L9 6L8 6L8 8L9 8L9 10L8 10L8 11L7 11L7 10L5 10L5 8L3 8L3 9L4 9L4 11L3 11L3 10L2 10L2 8L0 8L0 11L1 11L1 12L0 12L0 17L1 17L1 15L2 15L2 14L3 14L3 13L5 13L5 14L4 14L4 15L5 15L5 14L6 14L6 15L7 15L7 14L8 14L8 18L9 18L9 20L8 20L8 22L9 22L9 23L8 23L8 25L9 25L9 23L10 23L10 24L11 24L11 22L10 22L10 19L12 19L12 21L14 21L14 24L13 24L13 25L15 25L15 24L16 24L16 25L19 25L19 24L21 24L21 25L22 25L22 24L24 24L24 25L25 25L25 20L24 20L24 19L25 19L25 18L24 18L24 16L25 16L25 14L24 14L24 13L25 13L25 10L24 10L24 9L25 9L25 8L24 8L24 9L19 9L19 8L18 8L18 9L19 9L19 11L18 11L18 10L17 10L17 11L18 11L18 13L17 13L17 12L16 12L16 9L17 9L17 8L16 8L16 7L17 7L17 6L16 6L16 7L15 7L15 4L16 4L16 5L17 5L17 3L15 3L15 2L14 2L14 1L15 1L15 0L14 0L14 1L13 1L13 0L11 0L11 1L9 1L9 0ZM16 1L16 2L17 2L17 1ZM12 4L12 5L11 5L11 7L12 7L12 9L10 9L10 10L9 10L9 11L8 11L8 12L7 12L7 11L5 11L5 13L6 13L6 14L7 14L7 13L8 13L8 14L13 14L13 13L11 13L11 12L10 12L10 13L9 13L9 11L10 11L10 10L12 10L12 11L13 11L13 10L12 10L12 9L13 9L13 7L14 7L14 9L15 9L15 7L14 7L14 6L13 6L13 7L12 7L12 5L13 5L13 4ZM6 8L6 9L7 9L7 8ZM14 10L14 13L16 13L16 14L17 14L17 13L16 13L16 12L15 12L15 10ZM20 10L20 13L18 13L18 14L19 14L19 15L20 15L20 16L21 16L21 21L19 21L19 22L18 22L18 24L19 24L19 23L20 23L20 22L23 22L23 21L24 21L24 20L23 20L23 19L24 19L24 18L22 18L22 16L21 16L21 15L20 15L20 13L21 13L21 14L23 14L23 13L24 13L24 12L21 12L21 10ZM22 10L22 11L24 11L24 10ZM1 12L1 13L3 13L3 12ZM6 12L6 13L7 13L7 12ZM14 14L14 15L12 15L12 16L11 16L11 17L14 17L14 16L15 16L15 14ZM17 15L17 16L18 16L18 15ZM23 15L23 16L24 16L24 15ZM2 16L2 17L4 17L4 16ZM5 16L5 17L7 17L7 16ZM9 16L9 18L10 18L10 16ZM15 17L15 18L12 18L12 19L13 19L13 20L14 20L14 19L16 19L16 17ZM17 17L17 20L20 20L20 17ZM18 18L18 19L19 19L19 18ZM12 22L12 23L13 23L13 22ZM15 22L15 23L16 23L16 24L17 24L17 22ZM21 23L21 24L22 24L22 23ZM0 0L0 7L7 7L7 0ZM1 1L1 6L6 6L6 1ZM2 2L2 5L5 5L5 2ZM18 0L18 7L25 7L25 0ZM19 1L19 6L24 6L24 1ZM20 2L20 5L23 5L23 2ZM0 18L0 25L7 25L7 18ZM1 19L1 24L6 24L6 19ZM2 20L2 23L5 23L5 20Z" fill="#000000"/></g></g></svg>
